<?xml version="1.0" standalone="no"?>
<!DOCTYPE svg PUBLIC "-//W3C//DTD SVG 20010904//EN"
 "http://www.w3.org/TR/2001/REC-SVG-20010904/DTD/svg10.dtd">
<svg version="1.0" xmlns="http://www.w3.org/2000/svg"
 width="300.000000pt" height="300.000000pt" viewBox="0 0 300.000000 300.000000"
 preserveAspectRatio="xMidYMid meet">
<metadata>
Created by potrace 1.10, written by Peter Selinger 2001-2011
</metadata>
<g transform="translate(0.000000,300.000000) scale(0.100000,-0.100000)"
fill="#000000" stroke="none">
<path d="M970 2118 c-4 -182 -4 -248 1 -248 4 0 12 7 20 16 42 51 166 73 240
42 81 -35 144 -120 150 -203 1 -22 2 -115 1 -207 l-2 -168 -60 0 c-52 0 -62 3
-75 24 -15 23 -13 31 50 171 36 81 65 149 63 151 -2 2 -91 4 -196 4 l-193 2 0
-409 1 -408 525 -3 525 -2 0 208 0 208 51 13 c144 37 197 221 96 329 -29 31
-90 62 -122 62 l-25 0 0 210 0 210 -525 0 c-289 0 -525 -1 -525 -2z m1010
-220 c0 -198 7 -221 75 -239 153 -41 167 -239 22 -304 -98 -44 -97 -41 -97
-239 0 -132 -3 -176 -13 -185 -14 -11 -914 -15 -943 -4 -12 4 -14 67 -14 369
l0 364 140 0 c107 0 140 -3 140 -13 0 -7 -20 -61 -45 -119 -25 -59 -45 -118
-45 -132 0 -41 40 -78 91 -85 l44 -6 5 -132 c5 -122 7 -133 29 -157 14 -14 31
-26 38 -26 20 0 91 38 113 60 54 54 74 147 46 214 -17 40 -83 106 -106 106 -9
0 -22 11 -28 25 -12 27 -17 177 -6 188 4 3 26 -13 49 -37 23 -25 56 -51 74
-60 112 -59 261 -3 317 119 29 62 30 83 2 112 -16 18 -32 23 -68 23 -42 0 -50
-4 -87 -45 -24 -27 -49 -45 -62 -45 -12 0 -40 19 -66 46 l-44 47 -60 -6 -60
-5 -7 32 c-13 64 -60 130 -124 178 -13 9 -52 24 -87 32 -54 12 -72 12 -121 0
-31 -7 -60 -13 -64 -14 -5 0 -8 25 -8 55 l0 55 458 2 c251 2 469 1 485 -1 l27
-3 0 -170z m-430 -211 c0 -10 13 -32 29 -48 52 -51 137 -34 166 34 11 27 17
30 60 31 l47 1 -5 -39 c-11 -83 -90 -153 -182 -164 -92 -10 -200 73 -212 165
l-5 38 51 0 c43 0 51 -3 51 -18z m-96 -357 c57 -28 79 -63 84 -130 3 -45 0
-61 -20 -90 -29 -42 -83 -80 -114 -80 l-24 0 0 160 c0 180 -2 177 74 140z"/>
</g>
</svg>
